<svg version="1" xmlns="http://www.w3.org/2000/svg" width="437.333" height="437.333" viewBox="0 0 328.000000 328.000000"><path d="M36 141.3c-1.2 5.1-2.3 9.9-2.5 10.7-.2.8-2.6 11.6-5.4 23.9-2.8 12.4-5.1 22.8-5.1 23.3 0 .4 3.1.8 6.9.8 5.8 0 7-.3 7.5-1.8.2-.9 2.1-8.9 4.1-17.7 2-8.8 3.8-16.1 3.9-16.2.3-.3 5 24.5 4.7 25.4-.3 1.2 5.7 1.9 11.4 1.3 4.3-.4 5.2-.9 6.5-3.5 2.4-4.9 13.2-23.5 13.6-23.5.2 0 .2.6-.1 1.2-.2.7-.6 3.8-.9 6.8-.8 7.5-2.5 20.8-3.2 24.7l-.5 3.3h7.4c5.2 0 7.4-.4 7.4-1.3.1-3.1 1.5-16.4 1.8-17.7.2-.8.7-4.4 1-8 .3-3.6.8-8.3 1.1-10.5.4-2.2.7-5.4.9-7 .1-1.7.6-6.2 1.1-10 .4-3.9.8-8.4.8-10l.1-3-7.1-.1-7-.2-2.5 4.7c-1.3 2.5-4.9 9.1-7.9 14.6-3.1 5.5-7.1 13-9 16.7-1.9 3.7-3.8 6.4-4.1 6-.3-.4-1.9-7.5-3.4-15.7-1.5-8.3-2.8-15.5-2.9-16-.2-.6-.6-3-1-5.5l-.8-4.6-7.3-.1-7.4-.2-2.1 9.2zM137.9 132.9c0 .3-.2 1.5-.4 2.6s-.7 4.2-1.1 7c-.3 2.7-.8 5.3-1 5.6-.2.3-.6 2.4-.8 4.5-.3 2.1-1.7 10.3-3.1 18.1-1.3 7.7-2.7 15.6-2.9 17.5-.2 1.8-.8 5.2-1.1 7.5l-.8 4.3h7.1c5.9 0 7.1-.3 7.5-1.8.5-1.5 1.9-9.7 2.2-12.7.9-7.3 1.9-11.5 2.8-11.6.7-.1 6.4-.2 12.7-.3l11.4-.1.7-3.5c.4-1.9.9-4.9 1.2-6.6l.5-3h-12c-6.6.1-12.2-.2-12.4-.5-.4-.7 1.5-13.2 2.2-13.8.3-.3 6.4-.5 13.7-.6h13.2l.6-4.5c.4-2.5.8-5.4 1-6.5.4-1.9-.2-2-20.3-2.1-11.5-.1-20.8.1-20.9.5zM185.5 134.3c-.3 1.2-.9 4.4-1.4 7.1l-.9 4.8 6-.6c8.4-1 8.7-1.2 9.4-6.9.4-2.9.7-5.4.6-5.7-.1-.3-3.1-.6-6.7-.7-5.9-.1-6.5.1-7 2zM206.9 134.4c0 1.2-.2 2.8-.4 3.6-.6 3.1-2.7 14.6-3.2 17.5-.5 3.6-3.3 20.2-3.8 23-.2 1.1-.6 4-1 6.5s-1.1 6.5-1.5 9c-.5 2.4-.6 4.8-.4 5.2.5.7 13.4 1.2 13.4.5 0-.1.7-4 1.5-8.7.9-4.7 1.8-10.1 2.1-12 .3-1.9 1.9-11.6 3.6-21.5 1.7-9.9 3.2-19.7 3.5-21.7l.5-3.8-7.1.2c-6.5.1-7.1.3-7.2 2.2zM301.5 134.5c-4.5 4.5-3 11.5 2.9 13.5 2.8.9 4 .8 6.4-.4 3.4-1.7 4.2-3.4 4.2-8.1 0-6.7-8.7-9.9-13.5-5zm10.1 2.2c1.4 2 1.1 5.7-.7 7.9-1.7 2.1-6.5 1.7-8.2-.6-4.2-6 4.5-13.1 8.9-7.3z"/><path d="M304.9 136.7c-.7 3.3-.6 7.3.1 7.3.5 0 1-.6 1.3-1.3.3-.9.7-.9 1.9 0 1.3 1.1 1.5.8 1.6-1.9.1-3.2-1.1-4.8-3.5-4.8-.7 0-1.4.3-1.4.7zm3.1 2.3c0 .5-.4 1-1 1-.5 0-1-.5-1-1 0-.6.5-1 1-1 .6 0 1 .4 1 1zM237.3 150c-9.1 2-13.6 8.2-15.9 21.8-3.3 20.1-2.8 24.4 3.6 27.7 3.8 2 15.6 2 22.5 0 5.3-1.6 5.4-1.6 6.4-6.7.6-2.8 1-5.2.9-5.4-.2-.1-2.6.2-5.3.7-6.5 1.2-13.6 1.8-15.2 1.2-2.3-.9-1.2-7.3 1.1-7.3 2.8 0 14.4-4.3 17.8-6.7 8.9-6 9-19.6.2-23.8-3.8-1.8-11.3-2.5-16.1-1.5zm9.7 13.9c0 2.1-2.6 4.6-5.7 5.5-1.3.3-3.2.9-4.3 1.2-1.4.4-1.9.1-1.6-.8.2-.7.7-2.6 1.1-4.1 1.1-5.3 10.5-6.9 10.5-1.8zM273.3 150.4c-1.8.6-4.1 2-5.2 3.1-2.4 2.4-4.8 10.9-4.3 15.2.4 3.7 4.6 8.4 10 11.2 2.1 1.1 4.3 2.6 5 3.3 1 1.3 1.1 4.2.1 5.2-1.3 1.3-7.1 1.4-11.8.2-5.8-1.5-5.9-1.4-7.5 6-.6 2.8-.4 3.2 3.1 4.6 4.4 1.7 17.2 2.1 21.3.7 5.6-2 9.1-8.7 9.3-17.4.1-5.3-1-6.6-9.6-12.2-4.9-3.1-6.7-4.8-6.3-5.9.3-.9.6-2 .6-2.6 0-1 11.3-.7 14.9.3 1 .3 1.8-1.1 2.7-4.9.6-2.8.9-5.4.5-5.6-3.2-1.9-18.4-2.7-22.8-1.2zM190.7 151.6c-.1.1-2 .4-4.2.8-2.2.3-4.1.5-4.1.6-.2 0-1 4.4-1.9 10-.6 3.9-2.3 13.4-2.9 16.6-.2 1.2-.7 4.4-1.1 7.2-.3 2.9-1 6.6-1.6 8.4-.5 1.8-.5 3.6 0 4.1.4.4 3.7.7 7.2.5 5.6-.3 6.4-.6 6.6-2.3.2-2 5.5-33 7.1-41.8l.9-4.7-2.9.2c-1.6.1-3 .3-3.1.4zM101.5 166c-.2.3-.6 2.5-1 5s-.9 4.8-1.1 5.2c-.8 1.2 3.6 1.7 14.6 1.5l10.5-.2.7-4c1.5-8.9 2.3-8.3-11.3-8.2-6.6.1-12.2.4-12.4.7z"/></svg>