<svg width="450" height="255" viewBox="0 0 450 255" fill="none" xmlns="http://www.w3.org/2000/svg">
<path d="M446.899 173.377C446.416 171.97 445.942 170.581 445.46 169.209C445.348 168.899 445.244 168.599 445.141 168.298C410.568 69.6392 373.591 47.665 346.145 46.5676C314.33 45.2932 278.388 95.3835 278.388 95.3835C229.64 95.3835 197.824 148.421 197.824 148.421C166.009 133.146 135.858 166.669 120.984 190.847C106.111 215.034 123.466 221.397 123.466 221.397H414.007C431.775 219.937 459.282 211.706 446.899 173.369V173.377Z" fill="url(#paint0_linear_9207_10924)"/>
<path d="M258.678 36.7631C257.049 36.4356 255.326 36.9578 253.542 38.3029C253.189 38.5684 253.094 39.064 253.31 39.4534C253.361 39.5419 254.507 41.542 256.765 42.0022C257.075 42.0641 257.385 42.0995 257.696 42.0995C259.048 42.0995 260.461 41.5243 261.909 40.3738C262.254 40.0995 262.348 39.595 262.124 39.2145C262.073 39.1348 260.918 37.2144 258.678 36.7542V36.7631Z" fill="#0C685D"/>
<path d="M230.438 13.7887C230.352 13.7445 228.353 12.6559 226.191 13.4878C224.631 14.0807 223.442 15.4879 222.649 17.6472C222.494 18.072 222.675 18.5411 223.063 18.7446C223.123 18.78 224.14 19.3022 225.493 19.3022C226.035 19.3022 226.639 19.2137 227.259 18.9836C228.81 18.3906 230.016 17.0101 230.835 14.9038C230.999 14.4878 230.835 14.0099 230.447 13.7976L230.438 13.7887Z" fill="#0C685D"/>
<path d="M305.702 2.38841C305.607 2.36186 303.436 1.69812 301.48 2.94595C300.067 3.84864 299.17 5.45931 298.8 7.74258C298.731 8.18507 298.998 8.61872 299.42 8.73377C299.463 8.74262 300.006 8.90191 300.782 8.90191C301.557 8.90191 302.6 8.74262 303.573 8.11427C304.978 7.21159 305.9 5.62746 306.296 3.38844C306.374 2.94595 306.115 2.5123 305.702 2.37956V2.38841Z" fill="#0C685D"/>
<path d="M260.574 7.94783C260.574 7.94783 263.159 7.94783 268.287 13.6648C274.31 20.3731 279.877 21.9572 279.877 21.9572C279.877 21.9572 283.143 19.4527 282.902 13.6737C282.678 8.21333 282.531 5.16012 279.765 3.1866C277.197 1.36352 271.768 2.05381 268.218 2.8149C264.573 3.60254 261.987 5.76191 260.574 7.94783Z" fill="#C28900"/>
<path d="M282.142 20.1324C282.03 19.7784 281.78 19.4864 281.453 19.3271C279.359 18.3359 275.179 15.8933 270.741 10.7604C268.268 7.89303 265.916 5.71596 263.753 4.29998C263.201 3.93714 262.469 4.06103 262.055 4.58318C261.297 5.53896 259.918 7.41514 259.186 9.22051C258.936 9.8223 259.151 10.5126 259.694 10.8577C260.797 11.5657 262.641 13.026 265.2 15.9907C269.957 21.5041 274.542 24.4954 277.549 26.0441C277.73 26.1415 277.928 26.1857 278.126 26.1857C278.523 26.1857 278.919 25.9999 279.169 25.6459C279.66 24.9556 280.936 23.1414 282.03 21.2121C282.211 20.8846 282.254 20.5041 282.142 20.1413V20.1324Z" fill="#3B4467"/>
<path d="M284.239 3.4249C284.239 5.31877 282.749 6.8498 280.905 6.8498C279.061 6.8498 277.57 5.31877 277.57 3.4249C277.57 1.53103 279.061 0 280.905 0C282.749 0 284.239 1.53103 284.239 3.4249Z" fill="#3B4467"/>
<path d="M308.858 222.928C291.193 201.086 261.377 193.431 247.245 189.528C227.683 184.13 214.258 182.333 198.781 185.572C185.295 188.395 171.593 189.024 160.951 178.669C150.421 170.616 141.243 149.314 93.4862 149.314C45.7291 149.314 8.59719 210.432 6.96852 213.025C6.6066 213.68 6.24467 214.334 5.89136 214.989C5.89136 214.989 -16.1948 255 25.1596 255H299.707C331.573 255 309.737 224.158 308.858 222.928Z" fill="url(#paint1_linear_9207_10924)"/>
<path d="M343.758 200.21C342.302 195.608 344.904 190.696 341.664 185.767C338.208 180.501 336.063 182.413 329.651 179.696C323.24 176.97 326.23 173.82 317.88 169.855C312.779 167.43 308.444 169.297 304.394 171.218C304.394 171.218 304.394 171.218 304.385 171.218C304.032 171.386 303.67 171.554 303.326 171.722C299.25 173.466 295.742 172.731 293.778 171.997C293.226 171.74 292.666 171.474 292.106 171.209C288.047 169.288 283.721 167.421 278.62 169.846C270.261 173.811 273.251 176.97 266.849 179.687C260.437 182.413 258.3 180.492 254.836 185.758C251.596 190.687 254.198 195.608 252.742 200.201C251.286 204.794 249.398 209.263 251.087 214.998C252.69 220.432 255.181 220.255 261.377 228.494C265.737 234.291 269.175 235.291 277.094 235.291H319.423C327.342 235.291 330.737 234.255 335.141 228.494C340.061 222.06 343.818 220.441 345.43 214.998C347.119 209.263 345.231 204.794 343.775 200.201L343.758 200.21Z" fill="#0C685D"/>
<path d="M285.499 186.255C287.178 186.255 288.54 184.856 288.54 183.131C288.54 181.405 287.178 180.007 285.499 180.007C283.819 180.007 282.457 181.405 282.457 183.131C282.457 184.856 283.819 186.255 285.499 186.255Z" fill="#B7D8F9"/>
<path d="M266.854 197.591C268.534 197.591 269.896 196.192 269.896 194.467C269.896 192.741 268.534 191.343 266.854 191.343C265.174 191.343 263.812 192.741 263.812 194.467C263.812 196.192 265.174 197.591 266.854 197.591Z" fill="#B7D8F9"/>
<path d="M311.268 186.255C312.948 186.255 314.31 184.856 314.31 183.131C314.31 181.405 312.948 180.007 311.268 180.007C309.588 180.007 308.227 181.405 308.227 183.131C308.227 184.856 309.588 186.255 311.268 186.255Z" fill="#B7D8F9"/>
<path d="M329.901 197.591C331.581 197.591 332.943 196.192 332.943 194.467C332.943 192.741 331.581 191.343 329.901 191.343C328.221 191.343 326.859 192.741 326.859 194.467C326.859 196.192 328.221 197.591 329.901 197.591Z" fill="#B7D8F9"/>
<path d="M295.215 196.36C295.215 198.086 296.576 199.484 298.256 199.484C299.937 199.484 301.298 198.086 301.298 196.36C301.298 194.635 299.937 193.236 298.256 193.236C296.576 193.236 295.215 194.635 295.215 196.36Z" fill="#B7D8F9"/>
<path d="M309.812 205.831C309.812 207.557 311.174 208.955 312.854 208.955C314.534 208.955 315.896 207.557 315.896 205.831C315.896 204.105 314.534 202.707 312.854 202.707C311.174 202.707 309.812 204.105 309.812 205.831Z" fill="#B7D8F9"/>
<path d="M280.699 205.831C280.699 207.557 282.061 208.955 283.741 208.955C285.421 208.955 286.782 207.557 286.782 205.831C286.782 204.105 285.421 202.707 283.741 202.707C282.061 202.707 280.699 204.105 280.699 205.831Z" fill="#B7D8F9"/>
<path d="M400.232 218.945C381.266 183.785 352.432 194.228 329.502 207.901C300.789 225.025 296.73 213.742 266.854 211.016C247.758 209.273 231.756 222.176 222.604 235.716C215.857 244.362 215.745 255 231.911 255H375.449C376.819 254.841 378.344 254.752 380.068 254.734C413.805 254.469 400.396 219.37 400.232 218.945Z" fill="#CEE1DF"/>
<path d="M110.65 64.9135C110.831 61.5417 109.685 58.1079 107.178 55.5326C103.291 51.5413 97.3971 50.8776 92.8299 53.5237C91.9423 50.674 90.4171 47.9925 88.211 45.7358C80.8346 38.1603 68.8738 38.1603 61.4974 45.7358C56.4391 50.9307 54.8535 58.3292 56.7234 64.9135H110.65Z" fill="#E5F0FD"/>
<path d="M59.0907 94.1183C59.2199 91.7023 58.3927 89.242 56.6003 87.3924C53.8083 84.525 49.5858 84.056 46.3112 85.9587C45.6735 83.9144 44.5791 81.994 43.0022 80.3744C37.7112 74.9406 29.1369 74.9406 23.8459 80.3744C20.218 84.1002 19.0806 89.4013 20.4249 94.1271H59.0907V94.1183Z" fill="#E5F0FD"/>
<path d="M187.371 188.334C183.071 179.794 182.916 175.785 181.581 161.448C181.176 157.067 180.391 152.987 179.452 149.341C174.032 149.571 165.475 149.474 158.236 147.217C147.163 143.757 139.287 148.12 138.149 148.81L138.003 148.899L137.934 153.89C137.839 160.642 137.52 168.227 133.944 177.147C130.635 185.387 122.035 215.211 122.035 215.211H132.962L141.097 215.22C148.085 206.326 145.914 200.901 147.249 191.883C148.576 182.865 152.782 181.387 155.987 174.811C157.969 170.731 158.736 165.899 159.012 162.377C161.692 168.811 165.966 179.387 166.406 182.272C167.939 192.352 168.758 205.025 173.489 215.22H193.274C193.61 210.299 191.646 196.785 187.389 188.334H187.371Z" fill="#6C728D"/>
<path d="M194.688 220.203C193.317 219.973 188.785 218.097 185.855 215.22H173.48L176.048 223.309H196.351C196.351 223.309 196.695 220.539 194.688 220.212V220.203Z" fill="#0A1541"/>
<path d="M141.768 220.202C140.243 219.945 136.606 218.051 134.848 215.219H132.909L122.017 215.21L119.242 223.308H143.422C143.422 223.308 143.767 220.538 141.759 220.211L141.768 220.202Z" fill="#0A1541"/>
<path d="M164.544 68.7987C164.544 68.7987 180.477 65.0729 188.362 58.4532C199.177 49.3732 200.332 47.8599 200.332 47.8599L207.484 54.8778C207.484 54.8778 196.213 74.9847 170.611 81.277C164.208 82.6753 156.668 83.0824 155.953 76.5777C155.324 70.8253 164.544 68.7898 164.544 68.7898V68.7987Z" fill="#6C728D"/>
<path d="M209.345 45.8063C208.768 43.4257 206.2 42.3372 206.2 42.3372C206.2 42.3372 208.837 39.1247 208.199 38.7087C207.561 38.2928 206.234 39.0362 203.279 42.3903C200.323 45.7444 200.332 47.8683 200.332 47.8683L205.536 52.9747C205.579 52.9305 209.922 48.1869 209.345 45.8152V45.8063Z" fill="#F4DDB8"/>
<path d="M155.95 76.586C155.571 73.1257 158.75 71.0105 161.353 69.8777H155.821C155.821 69.8777 144.041 69.2848 141.533 76.4267C139.025 83.5685 141.921 94.4184 142.498 97.1265C143.076 99.8346 145.135 107.507 141.464 115.711C141.042 116.649 140.68 117.534 140.353 118.384C140.353 118.384 139.904 119.676 139.163 122.968C138.25 126.482 138.293 128.393 138.293 128.393C137.948 131.8 138.052 136.792 138 142.349V148.898C138 148.898 146.247 143.464 158.233 147.217C169.065 150.606 182.853 149.137 184.654 148.978L170.151 81.3737C163.852 82.6835 156.648 82.9313 155.95 76.586Z" fill="#3B4467"/>
<path d="M151.654 63.4174C151.654 63.4174 153.076 64.1608 152.516 65.3289C152.145 65.9573 151.577 66.7538 150.655 67.6742V70.2583C153.472 69.7539 155.825 69.8689 155.825 69.8689H158.936L158.841 68.4795L159.625 68.3468C162.081 68.037 162.228 65.913 162.176 64.9838C162.159 64.8334 162.15 64.6829 162.133 64.5502C161.952 62.9749 161.676 62.0987 161.676 62.0987C161.676 62.0987 163.503 61.3908 163.158 60.3642C162.814 59.3376 160.969 59.0898 160.289 57.1074C160.142 56.6738 159.978 56.3198 159.806 56.0189C159.324 55.1958 158.591 54.5498 158.591 54.5498C156.359 55.7268 154.05 54.9657 154.05 54.9657L152.214 58.5676C152.214 58.5676 149.293 57.2756 148.819 59.9659C148.517 61.674 150.293 62.8156 151.654 63.4262V63.4174Z" fill="#F4DDB8"/>
<path d="M134.341 100.233L141.623 93.0739C140.709 88.5074 139.753 81.5337 141.545 76.4362C141.855 75.5423 142.321 74.7724 142.881 74.1086C140.382 76.7459 130.541 87.1268 127.801 90.2685C124.655 93.8704 115.607 102.915 122.165 105.897C129.498 109.234 137.021 111.791 137.021 111.791L139.977 102.747L134.35 100.242L134.341 100.233Z" fill="#6C728D"/>
<path d="M139.967 102.729L137.012 111.774L138.787 112.367C138.373 116.057 139.269 118.252 140.045 119.42C140.252 118.694 140.364 118.376 140.364 118.376C140.691 117.526 141.053 116.641 141.475 115.703C143.086 112.101 143.595 108.614 143.603 105.588C142.44 103.862 139.967 102.72 139.967 102.72V102.729Z" fill="#F4DDB8"/>
<path d="M142.808 74.1629C142.808 74.1629 142.851 74.1187 142.868 74.101C142.851 74.1275 142.834 74.1452 142.816 74.1718C144.738 71.8354 147.918 70.7557 150.658 70.269V67.6848C151.58 66.7556 152.149 65.9591 152.52 65.3396C153.08 64.1714 151.692 63.4457 151.658 63.428C150.296 62.8174 148.521 61.6758 148.823 59.9677C149.305 57.2774 152.218 58.5695 152.218 58.5695L154.053 54.9676C154.053 54.9676 156.363 55.7375 158.595 54.5516C158.595 54.5516 159.336 55.1977 159.81 56.0207C159.974 56.3304 160.137 56.6844 160.292 57.1092C160.973 59.1005 162.817 59.3394 163.162 60.366C163.507 61.3926 161.68 62.1006 161.68 62.1006C161.68 62.1006 161.947 62.9767 162.136 64.552C162.154 64.6936 162.171 64.8352 162.18 64.9856C162.231 65.9149 162.085 68.0388 159.629 68.3486L158.845 68.4813L158.939 69.8707H161.361C163.084 69.1185 164.549 68.7911 164.549 68.7911C164.549 68.7911 180.483 65.0653 188.368 58.4456C191.315 55.9765 193.538 54.0649 195.218 52.587C195.149 51.4011 194.874 50.1798 194.339 48.9231C188.967 36.2857 176.226 37.9382 169.978 42.7813C165.229 46.4631 162.068 47.1974 158.129 47.1974C156.673 47.1974 154.853 46.8664 153.39 46.9054C144.773 46.9054 137.922 54.2596 137.922 62.5873C137.922 67.145 139.809 71.2513 142.808 74.1452V74.1629Z" fill="#0A1541"/>
<path d="M158.003 58.224C158.003 58.224 157.959 58.224 157.942 58.224C157.71 58.1886 157.546 57.9673 157.572 57.7284C157.632 57.2594 157.486 57.1178 157.486 57.1178C157.279 56.9939 157.227 56.7372 157.339 56.5248C157.46 56.3124 157.735 56.2505 157.942 56.3744C158.003 56.4098 158.563 56.7726 158.416 57.8523C158.39 58.0735 158.201 58.2328 157.985 58.2328L158.003 58.224Z" fill="#0A1541"/>
<path d="M152.103 60.4363C152.017 60.4363 151.922 60.4098 151.844 60.3478C151.19 59.8522 150.604 59.9142 150.569 59.923C150.336 59.9496 150.121 59.7814 150.087 59.5425C150.052 59.3035 150.216 59.0823 150.449 59.0469C150.492 59.0469 151.396 58.9141 152.353 59.6398C152.542 59.7814 152.585 60.0646 152.439 60.2593C152.353 60.3744 152.224 60.4363 152.094 60.4363H152.103Z" fill="#0A1541"/>
<path d="M161.331 64.0116C161.331 64.5603 160.9 64.994 160.374 64.994C159.849 64.994 159.418 64.5515 159.418 64.0116C159.418 63.4718 159.849 63.0293 160.374 63.0293C160.9 63.0293 161.331 63.4718 161.331 64.0116Z" fill="#0A1541"/>
<path d="M151.688 145.96L155.918 174.926C155.918 174.926 158.787 168.811 159.08 162.465L153.023 146.084C152.575 146.031 152.136 145.987 151.696 145.96H151.688Z" fill="url(#paint2_linear_9207_10924)"/>
<path d="M143.532 107.33C143.532 107.33 152.701 108.003 158.655 108.003C158.655 108.003 152.072 111.561 143.23 109.764" fill="#0A1541"/>
<defs>
<linearGradient id="paint0_linear_9207_10924" x1="114.952" y1="133.978" x2="449.992" y2="133.978" gradientUnits="userSpaceOnUse">
<stop stop-color="#3D867D"/>
<stop offset="1" stop-color="#6DA49E"/>
</linearGradient>
<linearGradient id="paint1_linear_9207_10924" x1="0.00574993" y1="202.157" x2="316.976" y2="202.157" gradientUnits="userSpaceOnUse">
<stop stop-color="#9EC3BE"/>
<stop offset="1" stop-color="#6DA49E"/>
</linearGradient>
<linearGradient id="paint2_linear_9207_10924" x1="160.399" y1="153.669" x2="147.465" y2="166.253" gradientUnits="userSpaceOnUse">
<stop stop-color="#3B4467"/>
<stop offset="0.08" stop-color="#414A6C"/>
<stop offset="0.42" stop-color="#59607E"/>
<stop offset="0.73" stop-color="#676D89"/>
<stop offset="1" stop-color="#6C728D"/>
</linearGradient>
</defs>
</svg>
