<svg width="98" height="24" viewBox="0 0 98 24" fill="none" xmlns="http://www.w3.org/2000/svg">
<path d="M97.9999 21.262C97.9961 21.5919 97.8946 21.9134 97.7082 22.1857C97.5218 22.4581 97.2589 22.669 96.9526 22.792C96.6464 22.9151 96.3106 22.9446 95.9876 22.8768C95.6646 22.8091 95.369 22.6472 95.1379 22.4116C94.9069 22.1759 94.7508 21.8771 94.6895 21.5528C94.6282 21.2285 94.6644 20.8934 94.7934 20.5896C94.9225 20.2859 95.1386 20.0272 95.4146 19.8462C95.6906 19.6653 96.0139 19.5701 96.3439 19.5728C96.7871 19.5787 97.2099 19.7595 97.5202 20.076C97.8304 20.3925 98.0029 20.8188 97.9999 21.262ZM94.9639 21.262C94.9705 21.5334 95.0569 21.7969 95.2125 22.0194C95.368 22.2419 95.5857 22.4137 95.8384 22.5131C96.0911 22.6124 96.3674 22.6351 96.6329 22.5782C96.8984 22.5212 97.1412 22.3873 97.3309 22.193C97.5206 21.9988 97.6487 21.7529 97.6993 21.4861C97.75 21.2194 97.7208 20.9436 97.6154 20.6934C97.5101 20.4431 97.3333 20.2295 97.1071 20.0793C96.8809 19.9291 96.6155 19.8489 96.3439 19.8488C96.1599 19.8488 95.9777 19.8855 95.8081 19.957C95.6385 20.0284 95.4848 20.133 95.3562 20.2647C95.2277 20.3963 95.1267 20.5524 95.0594 20.7237C94.992 20.8949 94.9595 21.078 94.9639 21.262ZM97.0478 20.9446C97.0541 21.0268 97.0343 21.109 96.9912 21.1794C96.9481 21.2498 96.8838 21.3048 96.8076 21.3365C96.8662 21.3731 96.9159 21.4224 96.9531 21.4806C96.9904 21.5388 97.0142 21.6046 97.0229 21.6732L97.1112 22.0513H96.6476L96.5896 21.7946C96.5206 21.5186 96.3854 21.5186 96.2667 21.5186H96.1756V22.0513H95.7092V20.4754H96.3909C96.6945 20.4754 97.0533 20.5747 97.056 20.9446H97.0478ZM96.1839 20.848V21.1654H96.3909C96.5178 21.1654 96.6006 21.1129 96.6006 21.0108C96.6006 20.9087 96.5206 20.8673 96.3909 20.8618L96.1839 20.848Z" fill="white"/>
<path d="M26.1882 14.5938L32.6824 14.569L26.1882 14.5938Z" fill="white"/>
<path d="M56.7765 2.94941C56.7765 3.3943 56.6446 3.82919 56.3974 4.1991C56.1502 4.56902 55.7989 4.85733 55.3879 5.02758C54.9769 5.19783 54.5246 5.24238 54.0883 5.15558C53.6519 5.06879 53.2511 4.85455 52.9365 4.53997C52.6219 4.22538 52.4077 3.82459 52.3209 3.38825C52.2341 2.95191 52.2787 2.49962 52.4489 2.0886C52.6192 1.67758 52.9075 1.32627 53.2774 1.0791C53.6473 0.831932 54.0822 0.700012 54.5271 0.700012C55.1237 0.700012 55.6958 0.937003 56.1177 1.35885C56.5395 1.78069 56.7765 2.35283 56.7765 2.94941Z" fill="white"/>
<path d="M32.4166 14.6656C32.5112 14.6648 32.6027 14.6315 32.6756 14.5712C32.7485 14.5108 32.7983 14.4272 32.8167 14.3344L33.3881 10.9534C33.3909 10.9295 33.3909 10.9055 33.3881 10.8816C33.3884 10.8281 33.3782 10.7751 33.358 10.7255C33.3378 10.676 33.3079 10.6309 33.2702 10.593C33.2325 10.555 33.1877 10.5248 33.1383 10.5043C33.0889 10.4837 33.0359 10.4731 32.9824 10.4731H26.7724C26.6764 10.4747 26.5841 10.5102 26.5118 10.5733C26.4396 10.6365 26.392 10.7232 26.3777 10.8181L25.8119 14.1826C25.8104 14.2074 25.8104 14.2323 25.8119 14.2571C25.8119 14.3654 25.8549 14.4693 25.9315 14.5459C26.0081 14.6225 26.112 14.6656 26.2204 14.6656H32.4166Z" fill="white"/>
<path d="M59.8734 23.2933C59.9677 23.2932 60.0592 23.2605 60.1321 23.2006C60.2051 23.1407 60.2551 23.0574 60.2736 22.9649L64.0437 1.18575C64.0452 1.16185 64.0452 1.13789 64.0437 1.11399C64.0441 1.06048 64.0338 1.00743 64.0136 0.957883C63.9934 0.90834 63.9636 0.863284 63.9259 0.825316C63.8881 0.787349 63.8433 0.757219 63.7939 0.736658C63.7445 0.716096 63.6915 0.705509 63.638 0.70551H60.2349C60.1404 0.705066 60.0487 0.737641 59.9756 0.797605C59.9026 0.857569 59.8527 0.941159 59.8347 1.03395L56.0784 22.8214C56.0768 22.8453 56.0768 22.8692 56.0784 22.8931C56.0784 23.0015 56.1214 23.1054 56.198 23.182C56.2746 23.2586 56.3785 23.3016 56.4868 23.3016L59.8734 23.2933Z" fill="white"/>
<path d="M91.1689 14.1301C90.5748 13.9508 89.9713 13.8043 89.3612 13.6913C89.0603 13.6333 88.7595 13.5726 88.4614 13.5036C87.7028 13.3554 86.9893 13.0322 86.3776 12.5597C86.1373 12.3767 85.9638 12.1199 85.8835 11.8287C85.8033 11.5376 85.8207 11.2281 85.9332 10.9479C86.0206 10.6821 86.1724 10.4422 86.3752 10.2495C86.578 10.0569 86.8253 9.91749 87.0952 9.84386C87.8607 9.55269 88.7105 9.57751 89.4578 9.91286C89.684 10.0229 89.8811 10.1847 90.0331 10.3851C90.1851 10.5856 90.2878 10.819 90.3327 11.0665C90.3496 11.1615 90.3986 11.2478 90.4714 11.3111C90.5442 11.3743 90.6365 11.4108 90.7329 11.4143H93.9013C94.0076 11.4136 94.1094 11.3719 94.1856 11.2978C94.2617 11.2237 94.3062 11.123 94.3098 11.0169C94.3098 10.8126 94.285 10.6167 94.2629 10.4207C94.1606 9.81022 93.9276 9.22906 93.5798 8.71697C93.2321 8.20488 92.7778 7.77397 92.2481 7.4537C90.6915 6.51255 88.7401 6.2945 86.7281 6.68918C84.1503 7.19978 82.7703 8.44454 82.0555 10.5918C81.8716 11.1509 81.8159 11.7443 81.8926 12.3279C82.0278 13.2635 82.5688 14.0363 83.601 14.7649C84.6333 15.4936 85.8891 15.9572 87.5478 16.2222C88.2681 16.2964 88.9454 16.6002 89.4798 17.0889C89.6841 17.2931 90.2278 17.8396 89.9076 18.6013C89.7959 18.8801 89.6294 19.1337 89.418 19.347C89.2065 19.5603 88.9545 19.7291 88.6767 19.8433C87.9789 20.1401 87.2025 20.1974 86.4687 20.0062C85.4999 19.766 85.2074 18.9022 85.0887 18.3226C85.0731 18.2282 85.0246 18.1424 84.9519 18.0803C84.8792 18.0182 84.7869 17.9838 84.6912 17.9831H81.4869C81.3802 17.9838 81.2781 18.0265 81.2027 18.1019C81.1273 18.1773 81.0847 18.2794 81.0839 18.386C81.082 19.0121 81.1913 19.6336 81.4068 20.2214C82.1879 21.9602 83.6921 22.9511 86.0685 23.2243C87.0425 23.3383 88.029 23.2804 88.983 23.0532C90.6998 22.6364 91.9859 21.836 92.916 20.6023C93.3135 20.0861 93.5998 19.4933 93.757 18.8611C93.9142 18.2289 93.9389 17.571 93.8296 16.9288C93.6143 15.5791 92.7062 14.6352 91.1303 14.1163" fill="white"/>
<path d="M47.282 14.4476L47.8947 11.1356C47.8962 11.1117 47.8962 11.0877 47.8947 11.0638C47.8955 10.9567 47.8538 10.8536 47.7788 10.7771C47.7039 10.7005 47.6017 10.6568 47.4946 10.6553H40.7795C40.6712 10.6553 40.5673 10.6123 40.4906 10.5357C40.414 10.4591 40.371 10.3552 40.371 10.2468C40.3697 10.2294 40.3697 10.2119 40.371 10.1944L41.2459 5.13256C41.2637 5.03969 41.3129 4.95578 41.3853 4.89495C41.4577 4.83412 41.5488 4.8001 41.6434 4.79861H49.1147C49.2104 4.7987 49.303 4.76495 49.3763 4.70334C49.4495 4.64172 49.4986 4.5562 49.5149 4.46189L50.0972 1.17749C50.0986 1.15451 50.0986 1.13147 50.0972 1.10849C50.0972 1.00015 50.0542 0.896255 49.9776 0.81965C49.901 0.743045 49.7971 0.700012 49.6887 0.700012H38.0968C38 0.700799 37.9067 0.735908 37.8334 0.79909C37.7601 0.862272 37.7116 0.949422 37.6966 1.04501L33.9623 22.8214C33.9611 22.8416 33.9611 22.8619 33.9623 22.8821C33.9623 22.9904 34.0053 23.0943 34.0819 23.1709C34.1585 23.2475 34.2624 23.2906 34.3708 23.2906H37.7711C37.8655 23.2905 37.9569 23.2577 38.0299 23.1979C38.1028 23.138 38.1528 23.0547 38.1713 22.9621L39.5347 15.1127C39.554 15.0226 39.6033 14.9416 39.6744 14.8829C39.7456 14.8243 39.8345 14.7915 39.9266 14.7898H46.8956C46.9902 14.7883 47.0813 14.7543 47.1537 14.6934C47.2261 14.6326 47.2753 14.5487 47.2931 14.4558" fill="white"/>
<path d="M8.78066 17.8532C9.12566 19.305 9.86533 20.5497 11.4109 20.4062C12.457 20.3096 13.3043 19.4485 13.8094 18.6039L14.4662 17.58L19.0754 9.86857C19.098 9.83312 19.129 9.80377 19.1655 9.78307C19.2021 9.76238 19.2432 9.75099 19.2852 9.74989C19.3552 9.74972 19.4226 9.77612 19.4738 9.82377C19.5251 9.87142 19.5563 9.93676 19.5612 10.0066L17.425 22.8212C17.4236 22.8451 17.4236 22.8691 17.425 22.893C17.4257 23.0016 17.4693 23.1055 17.5464 23.182C17.6234 23.2585 17.7276 23.3015 17.8362 23.3015H21.2338C21.3294 23.3018 21.4221 23.2685 21.4957 23.2075C21.5694 23.1465 21.6193 23.0615 21.6367 22.9675L25.4069 1.19114C25.4082 1.16816 25.4082 1.14512 25.4069 1.12214C25.4069 1.0138 25.3638 0.909908 25.2872 0.833303C25.2106 0.756698 25.1067 0.713657 24.9984 0.713657H20.4389C20.3676 0.713376 20.2974 0.732159 20.2358 0.768068C20.1742 0.803977 20.1233 0.855712 20.0884 0.917902L12.5839 13.7629C12.5484 13.8244 12.4973 13.8754 12.4358 13.9108C12.3742 13.9462 12.3044 13.9647 12.2334 13.9644C12.1408 13.9636 12.0511 13.9315 11.979 13.8734C11.9069 13.8153 11.8565 13.7346 11.836 13.6442L9.0953 1.03933C9.07655 0.948668 9.02755 0.867064 8.95634 0.807891C8.88513 0.748719 8.79594 0.715492 8.70337 0.713657H4.16043C4.06599 0.713977 3.97462 0.747231 3.90207 0.807689C3.82952 0.868148 3.78033 0.952027 3.76299 1.04486L0.0011142 22.8212C-0.000371402 22.8424 -0.000371402 22.8636 0.0011142 22.8847C0.0011142 22.993 0.0441475 23.0969 0.120752 23.1735C0.197357 23.2501 0.301253 23.2932 0.409588 23.2932H3.8099C3.90459 23.2922 3.99601 23.2584 4.0685 23.1975C4.141 23.1365 4.19007 23.0523 4.20734 22.9592L6.37393 10.5034C6.39345 10.4428 6.43478 10.3917 6.48987 10.3598C6.55153 10.3268 6.62344 10.3183 6.69107 10.3363C6.75871 10.3542 6.81702 10.3972 6.85419 10.4564C6.85419 10.4564 6.85419 10.4813 6.85419 10.4951L8.37493 16.3325L8.78066 17.8532Z" fill="white"/>
<path d="M76.3986 12.9572C76.244 13.2028 75.9266 13.2332 75.6147 13.2332H68.8748C68.6209 13.2332 68.3228 13.2332 68.1655 12.9793C68.0082 12.7254 68.1848 12.4273 68.3339 12.1844C69.3219 10.4898 70.7626 9.58725 72.4959 9.57621C74.2292 9.56517 75.5319 10.4456 76.3019 12.1209C76.4427 12.4245 76.5586 12.7171 76.3986 12.9655V12.9572ZM79.9866 14.293C80.0113 12.8707 79.6912 11.4634 79.0537 10.1917C78.4702 9.03138 77.5608 8.06646 76.4372 7.41513C75.2693 6.75658 73.9469 6.42123 72.6063 6.44362C71.0018 6.43924 69.4304 6.90039 68.0827 7.77118C66.6609 8.67865 65.5153 9.95884 64.7707 11.4723C64.3132 12.33 64.0025 13.2582 63.8516 14.2185V14.2323C63.8516 14.2792 63.8516 14.3262 63.8323 14.3758V14.4393C63.7734 14.9099 63.743 15.3837 63.7412 15.858C63.7412 15.938 63.7412 16.018 63.7412 16.0926V16.1146C63.7219 17.4176 64.0435 18.703 64.6741 19.8434C65.2796 20.9264 66.1893 21.8082 67.2906 22.3798C68.4748 22.9871 69.7908 23.2924 71.1214 23.2685C72.7107 23.2779 74.2732 22.8593 75.6451 22.0569C77.0393 21.2551 78.1853 20.0842 78.9571 18.6732C78.9571 18.6483 78.9819 18.6235 78.9957 18.6014C79.022 18.5452 79.0361 18.4841 79.0371 18.422C79.0371 18.3137 78.9941 18.2098 78.9175 18.1332C78.8409 18.0566 78.737 18.0135 78.6286 18.0135H74.8916C74.8322 18.0137 74.7736 18.0272 74.7201 18.053C74.6666 18.0787 74.6196 18.1162 74.5825 18.1626C74.3272 18.4457 74.0503 18.7087 73.7545 18.9492C73.086 19.5312 72.2286 19.8501 71.3422 19.8462C70.3459 19.8462 69.2916 19.4736 68.6761 18.7422C68.1181 18.12 67.7805 17.3314 67.7156 16.4983C67.7212 16.3952 67.7655 16.2981 67.8398 16.2264C67.914 16.1547 68.0126 16.1138 68.1158 16.1119H79.5449C79.6427 16.1105 79.7367 16.0737 79.8093 16.0082C79.8819 15.9427 79.9283 15.853 79.9396 15.7558C79.987 15.3131 80.0091 14.868 80.0059 14.4228C80.0059 14.3786 80.0059 14.3344 80.0059 14.2903" fill="white"/>
<path d="M55.905 7.00933C55.9326 6.80233 55.6621 6.69469 55.4993 6.82717C55.4948 6.826 55.49 6.826 55.4855 6.82717C53.5342 7.93117 52.2232 6.64777 52.2232 6.64777L52.121 6.57877C52.0887 6.55427 52.0505 6.53869 52.0102 6.53358C51.97 6.52847 51.9291 6.53402 51.8917 6.54967C51.8542 6.56531 51.8216 6.59051 51.7969 6.62274C51.7723 6.65497 51.7565 6.6931 51.7512 6.73333L48.9498 22.7689V22.8103V22.8462C48.9485 22.8544 48.9485 22.8628 48.9498 22.871C48.9498 22.9794 48.9928 23.0833 49.0694 23.1599C49.1461 23.2365 49.25 23.2795 49.3583 23.2795H52.7559C52.853 23.2859 52.9488 23.2548 53.0238 23.1927C53.0987 23.1306 53.147 23.0422 53.1588 22.9456L55.905 7.00933Z" fill="white"/>
</svg>
