<svg id="logo" width="266" height="40" viewBox="0 0 266 40" fill="none" xmlns="http://www.w3.org/2000/svg"> <g clip-path="url(#clip0_14342_5225)"> <path d="M26.1882 22.5938L32.6824 22.569L26.1882 22.5938Z" fill="white"></path> <path d="M56.7765 10.9494C56.7765 11.3943 56.6446 11.8292 56.3974 12.1991C56.1502 12.569 55.7989 12.8573 55.3879 13.0276C54.9769 13.1978 54.5246 13.2424 54.0883 13.1556C53.6519 13.0688 53.2511 12.8546 52.9365 12.54C52.622 12.2254 52.4077 11.8246 52.3209 11.3882C52.2341 10.9519 52.2787 10.4996 52.4489 10.0886C52.6192 9.67758 52.9075 9.32627 53.2774 9.0791C53.6473 8.83193 54.0822 8.70001 54.5271 8.70001C55.1237 8.70001 55.6958 8.937 56.1177 9.35885C56.5395 9.78069 56.7765 10.3528 56.7765 10.9494Z" fill="#338BF2"></path> <path d="M32.4166 22.6656C32.5112 22.6648 32.6027 22.6315 32.6756 22.5712C32.7485 22.5108 32.7983 22.4272 32.8167 22.3344L33.3881 18.9534C33.3909 18.9295 33.3909 18.9055 33.3881 18.8816C33.3884 18.8281 33.3782 18.7751 33.358 18.7255C33.3378 18.676 33.3079 18.6309 33.2702 18.593C33.2325 18.555 33.1877 18.5248 33.1383 18.5043C33.0889 18.4837 33.0359 18.4731 32.9824 18.4731H26.7724C26.6764 18.4747 26.5841 18.5102 26.5118 18.5733C26.4396 18.6365 26.392 18.7232 26.3777 18.8181L25.8119 22.1826C25.8104 22.2074 25.8104 22.2323 25.8119 22.2571C25.8119 22.3654 25.8549 22.4693 25.9315 22.5459C26.0081 22.6225 26.112 22.6656 26.2204 22.6656H32.4166Z" fill="white"></path> <path d="M59.8733 31.2933C59.9677 31.2932 60.0592 31.2605 60.1321 31.2006C60.2051 31.1407 60.255 31.0574 60.2735 30.9649L64.0437 9.18575C64.0452 9.16185 64.0452 9.13789 64.0437 9.11399C64.0441 9.06048 64.0338 9.00743 64.0136 8.95788C63.9934 8.90834 63.9635 8.86328 63.9258 8.82532C63.8881 8.78735 63.8433 8.75722 63.7939 8.73666C63.7445 8.7161 63.6915 8.70551 63.638 8.70551H60.2349C60.1404 8.70507 60.0487 8.73764 59.9756 8.79761C59.9025 8.85757 59.8527 8.94116 59.8347 9.03395L56.0783 30.8214C56.0768 30.8453 56.0768 30.8692 56.0783 30.8931C56.0783 31.0015 56.1214 31.1054 56.198 31.182C56.2746 31.2586 56.3785 31.3016 56.4868 31.3016L59.8733 31.2933Z" fill="white"></path> <path d="M91.169 22.1301C90.5749 21.9508 89.9714 21.8043 89.3612 21.6913C89.0603 21.6333 88.7595 21.5726 88.4614 21.5036C87.7028 21.3554 86.9893 21.0322 86.3776 20.5597C86.1374 20.3767 85.9638 20.1199 85.8836 19.8287C85.8033 19.5376 85.8207 19.2281 85.9332 18.9479C86.0206 18.6821 86.1724 18.4422 86.3752 18.2495C86.578 18.0569 86.8253 17.9175 87.0952 17.8439C87.8607 17.5527 88.7105 17.5775 89.4578 17.9129C89.684 18.0229 89.8811 18.1847 90.0331 18.3851C90.1851 18.5856 90.2878 18.819 90.3327 19.0665C90.3497 19.1615 90.3986 19.2478 90.4714 19.3111C90.5442 19.3743 90.6365 19.4108 90.7329 19.4143H93.9014C94.0076 19.4136 94.1095 19.3719 94.1856 19.2978C94.2618 19.2237 94.3063 19.123 94.3098 19.0169C94.3098 18.8126 94.285 18.6167 94.2629 18.4207C94.1606 17.8102 93.9276 17.2291 93.5798 16.717C93.2321 16.2049 92.7778 15.774 92.2481 15.4537C90.6915 14.5125 88.7402 14.2945 86.7281 14.6892C84.1503 15.1998 82.7703 16.4445 82.0555 18.5918C81.8716 19.1509 81.8159 19.7443 81.8926 20.3279C82.0278 21.2635 82.5688 22.0363 83.6011 22.7649C84.6333 23.4936 85.8891 23.9572 87.5478 24.2222C88.2681 24.2964 88.9455 24.6002 89.4798 25.0889C89.6841 25.2931 90.2278 25.8396 89.9076 26.6013C89.7959 26.8801 89.6294 27.1337 89.418 27.347C89.2065 27.5603 88.9545 27.7291 88.6767 27.8433C87.9789 28.1401 87.2025 28.1974 86.4687 28.0062C85.4999 27.766 85.2074 26.9022 85.0887 26.3226C85.0731 26.2282 85.0246 26.1424 84.9519 26.0803C84.8792 26.0182 84.7869 25.9838 84.6912 25.9831H81.4869C81.3803 25.9838 81.2782 26.0265 81.2027 26.1019C81.1273 26.1773 81.0847 26.2794 81.0839 26.386C81.082 27.0121 81.1913 27.6336 81.4068 28.2214C82.1879 29.9602 83.6921 30.9511 86.0685 31.2243C87.0425 31.3383 88.029 31.2804 88.9831 31.0532C90.6998 30.6364 91.9859 29.836 92.916 28.6023C93.3135 28.0861 93.5998 27.4933 93.757 26.8611C93.9142 26.2289 93.9389 25.571 93.8296 24.9288C93.6143 23.5791 92.7063 22.6352 91.1303 22.1163" fill="white"></path> <path d="M47.282 22.4476L47.8947 19.1356C47.8962 19.1117 47.8962 19.0877 47.8947 19.0638C47.8955 18.9567 47.8538 18.8536 47.7788 18.7771C47.7039 18.7005 47.6017 18.6568 47.4946 18.6553H40.7795C40.6712 18.6553 40.5673 18.6123 40.4906 18.5357C40.414 18.4591 40.371 18.3552 40.371 18.2468C40.3697 18.2294 40.3697 18.2119 40.371 18.1944L41.2459 13.1326C41.2637 13.0397 41.3129 12.9558 41.3853 12.8949C41.4577 12.8341 41.5488 12.8001 41.6434 12.7986H49.1147C49.2104 12.7987 49.303 12.765 49.3763 12.7033C49.4495 12.6417 49.4986 12.5562 49.5149 12.4619L50.0972 9.17749C50.0986 9.15451 50.0986 9.13147 50.0972 9.10849C50.0972 9.00015 50.0542 8.89625 49.9776 8.81965C49.901 8.74305 49.7971 8.70001 49.6887 8.70001H38.0968C38 8.7008 37.9067 8.73591 37.8334 8.79909C37.7601 8.86227 37.7116 8.94942 37.6966 9.04501L33.9623 30.8214C33.9611 30.8416 33.9611 30.8619 33.9623 30.8821C33.9623 30.9904 34.0053 31.0943 34.0819 31.1709C34.1585 31.2475 34.2624 31.2906 34.3708 31.2906H37.7711C37.8655 31.2905 37.9569 31.2577 38.0299 31.1979C38.1028 31.138 38.1528 31.0547 38.1713 30.9621L39.5347 23.1127C39.554 23.0226 39.6033 22.9416 39.6744 22.8829C39.7456 22.8243 39.8345 22.7915 39.9266 22.7898H46.8956C46.9902 22.7883 47.0813 22.7543 47.1537 22.6934C47.2261 22.6326 47.2753 22.5487 47.2931 22.4558" fill="white"></path> <path d="M8.78066 25.8532C9.12566 27.305 9.86533 28.5497 11.4109 28.4062C12.457 28.3096 13.3043 27.4485 13.8094 26.6039L14.4662 25.58L19.0754 17.8686C19.098 17.8331 19.129 17.8038 19.1655 17.7831C19.2021 17.7624 19.2432 17.751 19.2852 17.7499C19.3552 17.7497 19.4226 17.7761 19.4738 17.8238C19.5251 17.8714 19.5563 17.9368 19.5612 18.0066L17.425 30.8212C17.4236 30.8451 17.4236 30.8691 17.425 30.893C17.4257 31.0016 17.4693 31.1055 17.5464 31.182C17.6234 31.2585 17.7276 31.3015 17.8362 31.3015H21.2338C21.3294 31.3018 21.4221 31.2685 21.4957 31.2075C21.5694 31.1465 21.6193 31.0615 21.6367 30.9675L25.4069 9.19114C25.4082 9.16816 25.4082 9.14512 25.4069 9.12214C25.4069 9.0138 25.3638 8.90991 25.2872 8.8333C25.2106 8.7567 25.1067 8.71366 24.9984 8.71366H20.4389C20.3676 8.71338 20.2974 8.73216 20.2358 8.76807C20.1742 8.80398 20.1233 8.85571 20.0884 8.9179L12.5839 21.7629C12.5484 21.8244 12.4973 21.8754 12.4358 21.9108C12.3742 21.9462 12.3044 21.9647 12.2334 21.9644C12.1408 21.9636 12.0511 21.9315 11.979 21.8734C11.9069 21.8153 11.8565 21.7346 11.836 21.6442L9.0953 9.03933C9.07655 8.94867 9.02755 8.86706 8.95634 8.80789C8.88513 8.74872 8.79594 8.71549 8.70337 8.71366H4.16043C4.06599 8.71398 3.97462 8.74723 3.90207 8.80769C3.82952 8.86815 3.78033 8.95203 3.76299 9.04486L0.0011142 30.8212C-0.000371402 30.8424 -0.000371402 30.8636 0.0011142 30.8847C0.0011142 30.993 0.0441475 31.0969 0.120752 31.1735C0.197357 31.2501 0.301253 31.2932 0.409588 31.2932H3.8099C3.90459 31.2922 3.99601 31.2584 4.0685 31.1975C4.141 31.1365 4.19007 31.0523 4.20734 30.9592L6.37393 18.5034C6.39345 18.4428 6.43478 18.3917 6.48987 18.3598C6.55153 18.3268 6.62344 18.3183 6.69107 18.3363C6.75871 18.3542 6.81702 18.3972 6.85419 18.4564C6.85419 18.4564 6.85419 18.4813 6.85419 18.4951L8.37493 24.3325L8.78066 25.8532Z" fill="#338BF2"></path> <path d="M76.3986 20.9572C76.244 21.2028 75.9266 21.2332 75.6147 21.2332H68.8748C68.6209 21.2332 68.3228 21.2332 68.1655 20.9793C68.0082 20.7254 68.1848 20.4273 68.3339 20.1844C69.322 18.4898 70.7627 17.5873 72.4959 17.5762C74.2292 17.5652 75.5319 18.4456 76.302 20.1209C76.4427 20.4245 76.5587 20.7171 76.3986 20.9655V20.9572ZM79.9866 22.293C80.0113 20.8707 79.6912 19.4634 79.0537 18.1917C78.4702 17.0314 77.5609 16.0665 76.4372 15.4151C75.2693 14.7566 73.9469 14.4212 72.6063 14.4436C71.0018 14.4392 69.4304 14.9004 68.0827 15.7712C66.6609 16.6787 65.5153 17.9588 64.7707 19.4723C64.3132 20.33 64.0026 21.2582 63.8516 22.2185V22.2323C63.8516 22.2792 63.8516 22.3262 63.8323 22.3758V22.4393C63.7735 22.9099 63.743 23.3837 63.7412 23.858C63.7412 23.938 63.7412 24.018 63.7412 24.0926V24.1146C63.7219 25.4176 64.0435 26.703 64.6741 27.8434C65.2796 28.9264 66.1893 29.8082 67.2906 30.3798C68.4748 30.9871 69.7908 31.2924 71.1215 31.2685C72.7107 31.2779 74.2732 30.8593 75.6451 30.0569C77.0393 29.2551 78.1853 28.0842 78.9571 26.6732C78.9571 26.6483 78.9819 26.6235 78.9957 26.6014C79.0221 26.5452 79.0362 26.4841 79.0371 26.422C79.0371 26.3137 78.9941 26.2098 78.9175 26.1332C78.8409 26.0566 78.737 26.0135 78.6287 26.0135H74.8916C74.8322 26.0137 74.7736 26.0272 74.7201 26.053C74.6666 26.0787 74.6196 26.1162 74.5825 26.1626C74.3272 26.4457 74.0504 26.7087 73.7545 26.9492C73.0861 27.5312 72.2286 27.8501 71.3423 27.8462C70.3459 27.8462 69.2916 27.4736 68.6761 26.7422C68.1181 26.12 67.7806 25.3314 67.7156 24.4983C67.7212 24.3952 67.7655 24.2981 67.8398 24.2264C67.914 24.1547 68.0126 24.1138 68.1158 24.1119H79.545C79.6427 24.1105 79.7367 24.0737 79.8093 24.0082C79.882 23.9427 79.9283 23.853 79.9397 23.7558C79.987 23.3131 80.0091 22.868 80.0059 22.4228C80.0059 22.3786 80.0059 22.3344 80.0059 22.2903" fill="white"></path> <path d="M55.905 15.0093C55.9326 14.8023 55.6621 14.6947 55.4993 14.8272C55.4948 14.826 55.49 14.826 55.4855 14.8272C53.5341 15.9312 52.2231 14.6478 52.2231 14.6478L52.121 14.5788C52.0887 14.5543 52.0505 14.5387 52.0102 14.5336C51.97 14.5285 51.9291 14.534 51.8917 14.5497C51.8542 14.5653 51.8215 14.5905 51.7969 14.6227C51.7723 14.655 51.7565 14.6931 51.7512 14.7333L48.9498 30.7689V30.8103V30.8462C48.9485 30.8544 48.9485 30.8628 48.9498 30.871C48.9498 30.9794 48.9928 31.0833 49.0694 31.1599C49.146 31.2365 49.25 31.2795 49.3583 31.2795H52.7558C52.853 31.2859 52.9488 31.2548 53.0238 31.1927C53.0987 31.1306 53.147 31.0422 53.1588 30.9456L55.905 15.0093Z" fill="white"></path> </g> <path d="M106.648 15.016H110.752C111.92 15.016 112.976 15.184 113.92 15.52C114.864 15.84 115.672 16.304 116.344 16.912C117.016 17.504 117.536 18.224 117.904 19.072C118.272 19.904 118.456 20.84 118.456 21.88C118.456 23.208 118.208 24.432 117.712 25.552C117.232 26.656 116.552 27.616 115.672 28.432C114.792 29.232 113.728 29.864 112.48 30.328C111.248 30.776 109.88 31 108.376 31H103.84L106.648 15.016ZM108.52 29.248C109.768 29.232 110.872 29.04 111.832 28.672C112.808 28.288 113.624 27.768 114.28 27.112C114.936 26.44 115.432 25.664 115.768 24.784C116.12 23.904 116.296 22.952 116.296 21.928C116.296 21.112 116.152 20.384 115.864 19.744C115.592 19.104 115.2 18.568 114.688 18.136C114.192 17.688 113.592 17.352 112.888 17.128C112.184 16.888 111.4 16.768 110.536 16.768H108.496L106.288 29.248H108.52ZM126.064 19.24C127.008 19.24 127.776 19.496 128.368 20.008C128.96 20.504 129.256 21.152 129.256 21.952C129.256 22.752 129.016 23.408 128.536 23.92C128.072 24.432 127.48 24.84 126.76 25.144C126.04 25.448 125.248 25.672 124.384 25.816C123.52 25.96 122.688 26.056 121.888 26.104C121.84 26.392 121.816 26.688 121.816 26.992C121.816 27.744 121.992 28.368 122.344 28.864C122.696 29.36 123.32 29.608 124.216 29.608C124.776 29.608 125.336 29.528 125.896 29.368C126.456 29.192 126.976 28.968 127.456 28.696L127.864 30.184C127.304 30.504 126.696 30.76 126.04 30.952C125.4 31.144 124.72 31.24 124 31.24C123.296 31.24 122.68 31.128 122.152 30.904C121.624 30.68 121.184 30.368 120.832 29.968C120.496 29.568 120.24 29.104 120.064 28.576C119.888 28.032 119.8 27.448 119.8 26.824C119.8 25.864 119.944 24.928 120.232 24.016C120.52 23.104 120.936 22.296 121.48 21.592C122.024 20.872 122.68 20.304 123.448 19.888C124.232 19.456 125.104 19.24 126.064 19.24ZM125.8 20.824C125.32 20.824 124.88 20.936 124.48 21.16C124.08 21.368 123.72 21.648 123.4 22C123.096 22.336 122.84 22.728 122.632 23.176C122.424 23.608 122.272 24.04 122.176 24.472C122.736 24.456 123.312 24.408 123.904 24.328C124.512 24.232 125.064 24.096 125.56 23.92C126.056 23.728 126.464 23.488 126.784 23.2C127.104 22.896 127.264 22.52 127.264 22.072C127.264 21.704 127.128 21.408 126.856 21.184C126.6 20.944 126.248 20.824 125.8 20.824ZM133.152 31C132.848 28.808 132.48 26.784 132.048 24.928C131.616 23.072 131.104 21.256 130.512 19.48H132.6C133.112 21.016 133.52 22.568 133.824 24.136C134.144 25.688 134.416 27.312 134.64 29.008C135.44 27.536 136.144 26.024 136.752 24.472C137.36 22.92 137.744 21.256 137.904 19.48H139.992C139.88 20.536 139.672 21.576 139.368 22.6C139.08 23.608 138.728 24.592 138.312 25.552C137.912 26.512 137.456 27.448 136.944 28.36C136.448 29.256 135.928 30.136 135.384 31H133.152ZM147.111 19.24C148.055 19.24 148.823 19.496 149.415 20.008C150.007 20.504 150.303 21.152 150.303 21.952C150.303 22.752 150.063 23.408 149.583 23.92C149.119 24.432 148.527 24.84 147.807 25.144C147.087 25.448 146.295 25.672 145.431 25.816C144.567 25.96 143.735 26.056 142.935 26.104C142.887 26.392 142.863 26.688 142.863 26.992C142.863 27.744 143.039 28.368 143.391 28.864C143.743 29.36 144.367 29.608 145.263 29.608C145.823 29.608 146.383 29.528 146.943 29.368C147.503 29.192 148.023 28.968 148.503 28.696L148.911 30.184C148.351 30.504 147.743 30.76 147.087 30.952C146.447 31.144 145.767 31.24 145.047 31.24C144.343 31.24 143.727 31.128 143.199 30.904C142.671 30.68 142.231 30.368 141.879 29.968C141.543 29.568 141.287 29.104 141.111 28.576C140.935 28.032 140.847 27.448 140.847 26.824C140.847 25.864 140.991 24.928 141.279 24.016C141.567 23.104 141.983 22.296 142.527 21.592C143.071 20.872 143.727 20.304 144.495 19.888C145.279 19.456 146.151 19.24 147.111 19.24ZM146.847 20.824C146.367 20.824 145.927 20.936 145.527 21.16C145.127 21.368 144.767 21.648 144.447 22C144.143 22.336 143.887 22.728 143.679 23.176C143.471 23.608 143.319 24.04 143.223 24.472C143.783 24.456 144.359 24.408 144.951 24.328C145.559 24.232 146.111 24.096 146.607 23.92C147.103 23.728 147.511 23.488 147.831 23.2C148.151 22.896 148.311 22.52 148.311 22.072C148.311 21.704 148.175 21.408 147.903 21.184C147.647 20.944 147.295 20.824 146.847 20.824ZM151.439 31L154.415 14.056H156.527L153.551 31H151.439ZM168.03 23.944C168.03 24.808 167.886 25.68 167.598 26.56C167.31 27.424 166.894 28.208 166.35 28.912C165.822 29.6 165.166 30.16 164.382 30.592C163.598 31.024 162.71 31.24 161.718 31.24C160.998 31.24 160.358 31.128 159.798 30.904C159.254 30.664 158.79 30.336 158.406 29.92C158.022 29.504 157.734 29.016 157.542 28.456C157.35 27.88 157.254 27.256 157.254 26.584C157.254 25.64 157.39 24.728 157.662 23.848C157.95 22.952 158.358 22.168 158.886 21.496C159.414 20.808 160.062 20.264 160.83 19.864C161.614 19.448 162.502 19.24 163.493 19.24C164.214 19.24 164.854 19.368 165.414 19.624C165.974 19.864 166.446 20.2 166.83 20.632C167.23 21.064 167.526 21.568 167.718 22.144C167.926 22.704 168.03 23.304 168.03 23.944ZM161.838 29.608C162.478 29.608 163.054 29.448 163.566 29.128C164.078 28.792 164.502 28.36 164.838 27.832C165.19 27.304 165.454 26.712 165.63 26.056C165.822 25.384 165.918 24.72 165.918 24.064C165.918 23.632 165.862 23.224 165.75 22.84C165.654 22.44 165.502 22.096 165.294 21.808C165.086 21.52 164.814 21.296 164.478 21.136C164.158 20.96 163.774 20.872 163.326 20.872C162.734 20.872 162.19 21.032 161.694 21.352C161.214 21.656 160.798 22.072 160.446 22.6C160.11 23.112 159.846 23.712 159.654 24.4C159.462 25.072 159.366 25.784 159.366 26.536C159.366 27.48 159.566 28.232 159.965 28.792C160.382 29.336 161.006 29.608 161.838 29.608ZM171.619 19.48H173.635L173.107 22.552C173.347 22.136 173.603 21.736 173.875 21.352C174.163 20.952 174.483 20.6 174.835 20.296C175.203 19.976 175.611 19.72 176.059 19.528C176.507 19.336 177.003 19.24 177.547 19.24C178.043 19.24 178.483 19.352 178.867 19.576C179.251 19.784 179.571 20.072 179.827 20.44C180.099 20.808 180.299 21.248 180.427 21.76C180.571 22.272 180.643 22.824 180.643 23.416C180.643 24.328 180.507 25.256 180.235 26.2C179.963 27.128 179.547 27.968 178.987 28.72C178.443 29.456 177.755 30.064 176.923 30.544C176.107 31.008 175.139 31.24 174.019 31.24C173.651 31.24 173.259 31.208 172.843 31.144C172.427 31.096 172.051 31.008 171.715 30.88L170.827 35.944H168.715L171.619 19.48ZM176.923 20.896C176.491 20.896 176.075 21.032 175.675 21.304C175.291 21.576 174.915 21.936 174.547 22.384C174.195 22.816 173.859 23.304 173.539 23.848C173.219 24.392 172.923 24.928 172.651 25.456L171.979 29.272C172.539 29.48 173.179 29.584 173.899 29.584C174.635 29.584 175.291 29.416 175.867 29.08C176.443 28.744 176.923 28.296 177.307 27.736C177.707 27.176 178.011 26.528 178.219 25.792C178.427 25.056 178.531 24.288 178.531 23.488C178.531 23.152 178.507 22.832 178.459 22.528C178.411 22.208 178.323 21.928 178.195 21.688C178.083 21.448 177.923 21.256 177.715 21.112C177.507 20.968 177.243 20.896 176.923 20.896ZM188.596 19.24C189.54 19.24 190.308 19.496 190.9 20.008C191.492 20.504 191.788 21.152 191.788 21.952C191.788 22.752 191.548 23.408 191.068 23.92C190.604 24.432 190.012 24.84 189.292 25.144C188.572 25.448 187.78 25.672 186.916 25.816C186.052 25.96 185.22 26.056 184.42 26.104C184.372 26.392 184.348 26.688 184.348 26.992C184.348 27.744 184.524 28.368 184.876 28.864C185.228 29.36 185.852 29.608 186.748 29.608C187.308 29.608 187.868 29.528 188.428 29.368C188.988 29.192 189.508 28.968 189.988 28.696L190.396 30.184C189.836 30.504 189.228 30.76 188.572 30.952C187.932 31.144 187.252 31.24 186.532 31.24C185.828 31.24 185.212 31.128 184.684 30.904C184.156 30.68 183.716 30.368 183.364 29.968C183.028 29.568 182.772 29.104 182.596 28.576C182.42 28.032 182.332 27.448 182.332 26.824C182.332 25.864 182.476 24.928 182.764 24.016C183.052 23.104 183.468 22.296 184.012 21.592C184.556 20.872 185.212 20.304 185.98 19.888C186.764 19.456 187.636 19.24 188.596 19.24ZM188.332 20.824C187.852 20.824 187.412 20.936 187.012 21.16C186.612 21.368 186.252 21.648 185.932 22C185.628 22.336 185.372 22.728 185.164 23.176C184.956 23.608 184.804 24.04 184.708 24.472C185.268 24.456 185.844 24.408 186.436 24.328C187.044 24.232 187.596 24.096 188.092 23.92C188.588 23.728 188.996 23.488 189.316 23.2C189.636 22.896 189.796 22.52 189.796 22.072C189.796 21.704 189.66 21.408 189.388 21.184C189.132 20.944 188.78 20.824 188.332 20.824ZM200.603 21.328C200.539 21.312 200.467 21.304 200.387 21.304C200.307 21.304 200.235 21.304 200.171 21.304C199.323 21.304 198.563 21.584 197.891 22.144C197.235 22.704 196.667 23.48 196.187 24.472L195.035 31H192.923L194.963 19.48H197.027L196.499 22.48C196.867 21.472 197.347 20.712 197.939 20.2C198.531 19.672 199.243 19.408 200.075 19.408C200.203 19.408 200.339 19.416 200.483 19.432C200.627 19.432 200.739 19.448 200.819 19.48L200.603 21.328ZM217.93 19.24C217.93 20.232 217.714 21.072 217.282 21.76C216.866 22.448 216.314 23.016 215.626 23.464C214.938 23.912 214.146 24.24 213.25 24.448C212.37 24.64 211.466 24.736 210.538 24.736H209.362L208.258 31H206.098L208.906 15.016H213.034C213.77 15.016 214.434 15.12 215.026 15.328C215.634 15.536 216.154 15.824 216.586 16.192C217.018 16.56 217.346 17.008 217.57 17.536C217.81 18.048 217.93 18.616 217.93 19.24ZM210.658 23.008C211.298 23.008 211.922 22.944 212.53 22.816C213.138 22.688 213.682 22.48 214.162 22.192C214.642 21.904 215.026 21.528 215.314 21.064C215.618 20.584 215.77 20.008 215.77 19.336C215.77 18.52 215.49 17.88 214.93 17.416C214.386 16.952 213.682 16.72 212.818 16.72H210.778L209.674 23.008H210.658ZM228.92 23.944C228.92 24.808 228.776 25.68 228.488 26.56C228.2 27.424 227.784 28.208 227.24 28.912C226.712 29.6 226.056 30.16 225.272 30.592C224.488 31.024 223.6 31.24 222.608 31.24C221.888 31.24 221.248 31.128 220.688 30.904C220.144 30.664 219.68 30.336 219.296 29.92C218.912 29.504 218.624 29.016 218.432 28.456C218.24 27.88 218.144 27.256 218.144 26.584C218.144 25.64 218.28 24.728 218.552 23.848C218.84 22.952 219.248 22.168 219.776 21.496C220.304 20.808 220.952 20.264 221.72 19.864C222.504 19.448 223.392 19.24 224.384 19.24C225.104 19.24 225.744 19.368 226.304 19.624C226.864 19.864 227.336 20.2 227.72 20.632C228.12 21.064 228.416 21.568 228.608 22.144C228.816 22.704 228.92 23.304 228.92 23.944ZM222.728 29.608C223.368 29.608 223.944 29.448 224.456 29.128C224.968 28.792 225.392 28.36 225.728 27.832C226.08 27.304 226.344 26.712 226.52 26.056C226.712 25.384 226.808 24.72 226.808 24.064C226.808 23.632 226.752 23.224 226.64 22.84C226.544 22.44 226.392 22.096 226.184 21.808C225.976 21.52 225.704 21.296 225.368 21.136C225.048 20.96 224.664 20.872 224.216 20.872C223.624 20.872 223.08 21.032 222.584 21.352C222.104 21.656 221.688 22.072 221.336 22.6C221 23.112 220.736 23.712 220.544 24.4C220.352 25.072 220.256 25.784 220.256 26.536C220.256 27.48 220.456 28.232 220.856 28.792C221.272 29.336 221.896 29.608 222.728 29.608ZM238.15 21.328C238.086 21.312 238.014 21.304 237.934 21.304C237.854 21.304 237.782 21.304 237.718 21.304C236.87 21.304 236.11 21.584 235.438 22.144C234.782 22.704 234.214 23.48 233.734 24.472L232.582 31H230.47L232.51 19.48H234.574L234.046 22.48C234.414 21.472 234.894 20.712 235.486 20.2C236.078 19.672 236.79 19.408 237.622 19.408C237.75 19.408 237.886 19.416 238.03 19.432C238.174 19.432 238.286 19.448 238.366 19.48L238.15 21.328ZM239.155 19.48H241.267L241.795 16.456H243.907L243.379 19.48H247.099L246.787 21.184H243.067L241.963 27.448C241.915 27.736 241.891 27.976 241.891 28.168C241.891 28.632 241.995 28.984 242.203 29.224C242.411 29.448 242.755 29.56 243.235 29.56C243.635 29.56 244.027 29.52 244.411 29.44C244.811 29.344 245.187 29.224 245.539 29.08L245.683 30.616C245.331 30.792 244.899 30.936 244.387 31.048C243.891 31.176 243.387 31.24 242.875 31.24C241.867 31.24 241.099 30.984 240.571 30.472C240.043 29.944 239.779 29.216 239.779 28.288C239.779 28.112 239.787 27.944 239.803 27.784C239.819 27.608 239.843 27.448 239.875 27.304L240.955 21.184H238.843L239.155 19.48ZM256.506 31H254.49L255.21 26.8C255.002 27.28 254.754 27.784 254.466 28.312C254.178 28.824 253.842 29.296 253.458 29.728C253.09 30.16 252.682 30.52 252.234 30.808C251.786 31.096 251.298 31.24 250.77 31.24C250.274 31.24 249.834 31.128 249.45 30.904C249.082 30.68 248.77 30.384 248.514 30.016C248.258 29.648 248.066 29.216 247.938 28.72C247.81 28.224 247.746 27.704 247.746 27.16C247.746 26.12 247.89 25.128 248.178 24.184C248.482 23.224 248.922 22.376 249.498 21.64C250.074 20.904 250.778 20.32 251.61 19.888C252.442 19.456 253.386 19.24 254.442 19.24C255.162 19.24 255.882 19.328 256.602 19.504C257.322 19.664 257.93 19.856 258.426 20.08L256.506 31ZM251.226 29.536C251.674 29.536 252.114 29.32 252.546 28.888C252.994 28.44 253.418 27.88 253.818 27.208C254.218 26.536 254.586 25.808 254.922 25.024C255.274 24.24 255.578 23.504 255.834 22.816L256.122 21.208C255.626 20.984 255.034 20.872 254.346 20.872C253.658 20.872 253.034 21.056 252.474 21.424C251.93 21.776 251.458 22.24 251.058 22.816C250.674 23.392 250.378 24.056 250.17 24.808C249.962 25.544 249.858 26.296 249.858 27.064C249.858 27.368 249.874 27.672 249.906 27.976C249.954 28.264 250.026 28.528 250.122 28.768C250.218 28.992 250.354 29.176 250.53 29.32C250.706 29.464 250.938 29.536 251.226 29.536ZM260.048 31L263.024 14.056H265.136L262.16 31H260.048Z" fill="white"></path> <defs> <clipPath id="clip0_14342_5225"> <rect width="95" height="24" fill="white" transform="translate(0 8)"></rect> </clipPath> </defs> </svg>