<svg width="211" height="40" viewBox="0 0 211 40" fill="none" xmlns="http://www.w3.org/2000/svg">
<g clip-path="url(#clip0_7194_5612)">
<g clip-path="url(#clip1_7194_5612)">
<path d="M26.1882 22.5938L32.6824 22.569L26.1882 22.5938Z" fill="white"/>
<path d="M56.7765 10.9494C56.7765 11.3943 56.6446 11.8292 56.3974 12.1991C56.1502 12.569 55.7989 12.8573 55.3879 13.0276C54.9769 13.1978 54.5246 13.2424 54.0883 13.1556C53.6519 13.0688 53.2511 12.8545 52.9365 12.54C52.622 12.2254 52.4077 11.8246 52.3209 11.3882C52.2341 10.9519 52.2787 10.4996 52.4489 10.0886C52.6192 9.67757 52.9075 9.32625 53.2774 9.07909C53.6473 8.83192 54.0822 8.7 54.5271 8.7C55.1237 8.7 55.6958 8.93699 56.1177 9.35884C56.5395 9.78068 56.7765 10.3528 56.7765 10.9494Z" fill="#338BF2"/>
<path d="M32.4166 22.6656C32.5112 22.6648 32.6027 22.6315 32.6756 22.5711C32.7485 22.5108 32.7983 22.4272 32.8167 22.3343L33.3881 18.9534C33.3909 18.9295 33.3909 18.9054 33.3881 18.8816C33.3884 18.8281 33.3782 18.775 33.358 18.7255C33.3378 18.6759 33.3079 18.6309 33.2702 18.5929C33.2325 18.555 33.1877 18.5248 33.1383 18.5043C33.0889 18.4837 33.0359 18.4731 32.9824 18.4731H26.7724C26.6764 18.4747 26.5841 18.5102 26.5118 18.5733C26.4396 18.6365 26.392 18.7232 26.3777 18.8181L25.8119 22.1826C25.8104 22.2074 25.8104 22.2323 25.8119 22.2571C25.8119 22.3654 25.8549 22.4693 25.9315 22.5459C26.0081 22.6225 26.112 22.6656 26.2204 22.6656H32.4166Z" fill="white"/>
<path d="M59.8733 31.2933C59.9677 31.2932 60.0592 31.2605 60.1321 31.2006C60.2051 31.1407 60.255 31.0574 60.2735 30.9649L64.0437 9.18573C64.0452 9.16183 64.0452 9.13787 64.0437 9.11398C64.0441 9.06047 64.0338 9.00741 64.0136 8.95787C63.9934 8.90832 63.9635 8.86327 63.9258 8.8253C63.8881 8.78733 63.8433 8.7572 63.7939 8.73664C63.7445 8.71608 63.6915 8.70549 63.638 8.70549H60.2349C60.1404 8.70505 60.0487 8.73763 59.9756 8.79759C59.9025 8.85755 59.8527 8.94114 59.8347 9.03393L56.0783 30.8213C56.0768 30.8452 56.0768 30.8692 56.0783 30.8931C56.0783 31.0014 56.1214 31.1053 56.198 31.1819C56.2746 31.2585 56.3785 31.3016 56.4868 31.3016L59.8733 31.2933Z" fill="white"/>
<path d="M91.169 22.1301C90.5749 21.9508 89.9714 21.8043 89.3612 21.6913C89.0603 21.6333 88.7595 21.5726 88.4614 21.5036C87.7028 21.3554 86.9893 21.0322 86.3776 20.5597C86.1374 20.3767 85.9638 20.1199 85.8836 19.8287C85.8033 19.5376 85.8207 19.2281 85.9332 18.9479C86.0206 18.6821 86.1724 18.4422 86.3752 18.2495C86.578 18.0569 86.8253 17.9175 87.0952 17.8439C87.8607 17.5527 88.7105 17.5775 89.4578 17.9129C89.684 18.0229 89.8811 18.1847 90.0331 18.3851C90.1851 18.5856 90.2878 18.819 90.3327 19.0665C90.3497 19.1615 90.3986 19.2478 90.4714 19.3111C90.5442 19.3743 90.6365 19.4108 90.7329 19.4143H93.9014C94.0076 19.4136 94.1095 19.3719 94.1856 19.2978C94.2618 19.2237 94.3063 19.123 94.3098 19.0169C94.3098 18.8126 94.285 18.6167 94.2629 18.4207C94.1606 17.8102 93.9276 17.2291 93.5798 16.717C93.2321 16.2049 92.7778 15.774 92.2481 15.4537C90.6915 14.5125 88.7402 14.2945 86.7281 14.6892C84.1503 15.1998 82.7703 16.4445 82.0555 18.5918C81.8716 19.1509 81.8159 19.7443 81.8926 20.3279C82.0278 21.2635 82.5688 22.0363 83.6011 22.7649C84.6333 23.4936 85.8891 23.9572 87.5478 24.2222C88.2681 24.2964 88.9455 24.6002 89.4798 25.0889C89.6841 25.2931 90.2278 25.8396 89.9076 26.6013C89.7959 26.8801 89.6294 27.1337 89.418 27.347C89.2065 27.5603 88.9545 27.7291 88.6767 27.8433C87.9789 28.1401 87.2025 28.1974 86.4687 28.0062C85.4999 27.766 85.2074 26.9022 85.0887 26.3226C85.0731 26.2282 85.0246 26.1424 84.9519 26.0803C84.8792 26.0182 84.7869 25.9838 84.6912 25.9831H81.4869C81.3803 25.9838 81.2782 26.0265 81.2027 26.1019C81.1273 26.1773 81.0847 26.2794 81.0839 26.386C81.082 27.0121 81.1913 27.6336 81.4068 28.2214C82.1879 29.9602 83.6921 30.9511 86.0685 31.2243C87.0425 31.3383 88.029 31.2804 88.9831 31.0532C90.6998 30.6364 91.9859 29.836 92.916 28.6023C93.3135 28.0861 93.5998 27.4933 93.757 26.8611C93.9142 26.2289 93.9389 25.571 93.8296 24.9288C93.6143 23.5791 92.7063 22.6352 91.1303 22.1163" fill="white"/>
<path d="M47.282 22.4475L47.8947 19.1355C47.8962 19.1116 47.8962 19.0877 47.8947 19.0638C47.8955 18.9567 47.8538 18.8536 47.7788 18.7771C47.7039 18.7005 47.6017 18.6568 47.4946 18.6553H40.7795C40.6712 18.6553 40.5673 18.6123 40.4906 18.5357C40.414 18.4591 40.371 18.3552 40.371 18.2468C40.3697 18.2294 40.3697 18.2118 40.371 18.1944L41.2459 13.1326C41.2637 13.0397 41.3129 12.9558 41.3853 12.8949C41.4577 12.8341 41.5488 12.8001 41.6434 12.7986H49.1147C49.2104 12.7987 49.303 12.7649 49.3763 12.7033C49.4495 12.6417 49.4986 12.5562 49.5149 12.4619L50.0972 9.17747C50.0986 9.15449 50.0986 9.13145 50.0972 9.10847C50.0972 9.00014 50.0542 8.89624 49.9776 8.81964C49.901 8.74303 49.7971 8.7 49.6887 8.7H38.0968C38 8.70079 37.9067 8.7359 37.8334 8.79908C37.7601 8.86226 37.7116 8.94941 37.6966 9.045L33.9623 30.8214C33.9611 30.8416 33.9611 30.8619 33.9623 30.8821C33.9623 30.9904 34.0053 31.0943 34.0819 31.1709C34.1585 31.2475 34.2624 31.2906 34.3708 31.2906H37.7711C37.8655 31.2905 37.9569 31.2577 38.0299 31.1978C38.1028 31.138 38.1528 31.0547 38.1713 30.9621L39.5347 23.1127C39.554 23.0225 39.6033 22.9416 39.6744 22.8829C39.7456 22.8243 39.8345 22.7915 39.9266 22.7898H46.8956C46.9902 22.7883 47.0813 22.7543 47.1537 22.6934C47.2261 22.6326 47.2753 22.5487 47.2931 22.4558" fill="white"/>
<path d="M8.78066 25.8532C9.12566 27.305 9.86533 28.5497 11.4109 28.4062C12.457 28.3096 13.3043 27.4485 13.8094 26.6039L14.4662 25.58L19.0754 17.8685C19.098 17.8331 19.129 17.8037 19.1655 17.783C19.2021 17.7624 19.2432 17.751 19.2852 17.7499C19.3552 17.7497 19.4226 17.7761 19.4738 17.8237C19.5251 17.8714 19.5563 17.9367 19.5612 18.0065L17.425 30.8212C17.4236 30.8451 17.4236 30.8691 17.425 30.893C17.4257 31.0015 17.4693 31.1054 17.5464 31.182C17.6234 31.2585 17.7276 31.3014 17.8362 31.3014H21.2338C21.3294 31.3017 21.4221 31.2685 21.4957 31.2075C21.5694 31.1464 21.6193 31.0615 21.6367 30.9675L25.4069 9.19111C25.4082 9.16813 25.4082 9.14509 25.4069 9.12211C25.4069 9.01378 25.3638 8.90988 25.2872 8.83328C25.2106 8.75667 25.1067 8.71363 24.9984 8.71363H20.4389C20.3676 8.71335 20.2974 8.73213 20.2358 8.76804C20.1742 8.80395 20.1233 8.85568 20.0884 8.91788L12.5839 21.7629C12.5484 21.8244 12.4973 21.8754 12.4358 21.9108C12.3742 21.9461 12.3044 21.9646 12.2334 21.9644C12.1408 21.9636 12.0511 21.9315 11.979 21.8734C11.9069 21.8153 11.8565 21.7345 11.836 21.6442L9.0953 9.03931C9.07655 8.94864 9.02755 8.86704 8.95634 8.80786C8.88513 8.74869 8.79594 8.71547 8.70337 8.71363H4.16043C4.06599 8.71395 3.97462 8.7472 3.90207 8.80766C3.82952 8.86812 3.78033 8.952 3.76299 9.04483L0.0011142 30.8212C-0.000371402 30.8423 -0.000371402 30.8635 0.0011142 30.8847C0.0011142 30.993 0.0441475 31.0969 0.120752 31.1735C0.197357 31.2501 0.301253 31.2932 0.409588 31.2932H3.8099C3.90459 31.2922 3.99601 31.2583 4.0685 31.1974C4.141 31.1365 4.19007 31.0523 4.20734 30.9592L6.37393 18.5033C6.39345 18.4428 6.43478 18.3916 6.48987 18.3598C6.55153 18.3267 6.62344 18.3183 6.69107 18.3362C6.75871 18.3542 6.81702 18.3971 6.85419 18.4564C6.85419 18.4564 6.85419 18.4813 6.85419 18.4951L8.37493 24.3324L8.78066 25.8532Z" fill="#338BF2"/>
<path d="M76.3986 20.9572C76.244 21.2028 75.9266 21.2332 75.6147 21.2332H68.8748C68.6209 21.2332 68.3228 21.2332 68.1655 20.9793C68.0082 20.7253 68.1848 20.4273 68.3339 20.1844C69.322 18.4897 70.7627 17.5872 72.4959 17.5762C74.2292 17.5651 75.5319 18.4456 76.302 20.1209C76.4427 20.4245 76.5587 20.7171 76.3986 20.9655V20.9572ZM79.9866 22.293C80.0113 20.8706 79.6912 19.4634 79.0537 18.1917C78.4702 17.0313 77.5609 16.0664 76.4372 15.4151C75.2693 14.7565 73.9469 14.4212 72.6063 14.4436C71.0018 14.4392 69.4304 14.9004 68.0827 15.7711C66.6609 16.6786 65.5153 17.9588 64.7707 19.4723C64.3132 20.33 64.0026 21.2582 63.8516 22.2185V22.2323C63.8516 22.2792 63.8516 22.3261 63.8323 22.3758V22.4393C63.7735 22.9099 63.743 23.3837 63.7412 23.8579C63.7412 23.938 63.7412 24.018 63.7412 24.0925V24.1146C63.7219 25.4176 64.0435 26.703 64.6741 27.8434C65.2796 28.9264 66.1893 29.8082 67.2906 30.3798C68.4748 30.9871 69.7908 31.2924 71.1215 31.2685C72.7107 31.2778 74.2732 30.8593 75.6451 30.0569C77.0393 29.255 78.1853 28.0842 78.9571 26.6731C78.9571 26.6483 78.9819 26.6234 78.9957 26.6014C79.0221 26.5452 79.0362 26.484 79.0371 26.422C79.0371 26.3136 78.9941 26.2097 78.9175 26.1331C78.8409 26.0565 78.737 26.0135 78.6287 26.0135H74.8916C74.8322 26.0137 74.7736 26.0271 74.7201 26.0529C74.6666 26.0787 74.6196 26.1162 74.5825 26.1625C74.3272 26.4457 74.0504 26.7087 73.7545 26.9491C73.0861 27.5312 72.2286 27.85 71.3423 27.8461C70.3459 27.8461 69.2916 27.4735 68.6761 26.7421C68.1181 26.12 67.7806 25.3314 67.7156 24.4983C67.7212 24.3952 67.7655 24.2981 67.8398 24.2264C67.914 24.1547 68.0126 24.1138 68.1158 24.1119H79.545C79.6427 24.1105 79.7367 24.0736 79.8093 24.0081C79.882 23.9426 79.9283 23.8529 79.9397 23.7558C79.987 23.3131 80.0091 22.868 80.0059 22.4227C80.0059 22.3786 80.0059 22.3344 80.0059 22.2903" fill="white"/>
<path d="M55.905 15.0093C55.9326 14.8023 55.6621 14.6947 55.4993 14.8272C55.4948 14.826 55.49 14.826 55.4855 14.8272C53.5341 15.9312 52.2231 14.6478 52.2231 14.6478L52.121 14.5788C52.0887 14.5543 52.0505 14.5387 52.0102 14.5336C51.97 14.5285 51.9291 14.534 51.8917 14.5497C51.8542 14.5653 51.8215 14.5905 51.7969 14.6227C51.7723 14.655 51.7565 14.6931 51.7512 14.7333L48.9498 30.7689V30.8103V30.8462C48.9485 30.8544 48.9485 30.8628 48.9498 30.871C48.9498 30.9794 48.9928 31.0833 49.0694 31.1599C49.146 31.2365 49.25 31.2795 49.3583 31.2795H52.7558C52.853 31.2859 52.9488 31.2548 53.0238 31.1927C53.0987 31.1306 53.147 31.0422 53.1588 30.9456L55.905 15.0093Z" fill="white"/>
</g>
<path d="M116.656 15.016H118.816L116.992 25.408C116.848 26.24 116.6 27.016 116.248 27.736C115.912 28.456 115.464 29.08 114.904 29.608C114.344 30.136 113.672 30.552 112.888 30.856C112.12 31.144 111.224 31.288 110.2 31.288C109.384 31.288 108.64 31.168 107.968 30.928C107.296 30.672 106.72 30.32 106.24 29.872C105.76 29.408 105.384 28.864 105.112 28.24C104.84 27.616 104.704 26.92 104.704 26.152C104.704 25.976 104.712 25.792 104.728 25.6C104.744 25.408 104.768 25.216 104.8 25.024L106.552 15.016H108.712L106.96 25.024C106.928 25.216 106.904 25.408 106.888 25.6C106.872 25.776 106.864 25.952 106.864 26.128C106.864 26.608 106.928 27.056 107.056 27.472C107.2 27.888 107.416 28.248 107.704 28.552C107.992 28.856 108.36 29.096 108.808 29.272C109.256 29.448 109.792 29.536 110.416 29.536C111.616 29.536 112.592 29.176 113.344 28.456C114.112 27.72 114.608 26.72 114.832 25.456L116.656 15.016ZM127.122 27.736C127.122 28.28 127.002 28.768 126.762 29.2C126.538 29.632 126.226 30 125.826 30.304C125.442 30.608 124.978 30.84 124.434 31C123.906 31.16 123.346 31.24 122.754 31.24C122.162 31.24 121.538 31.168 120.882 31.024C120.242 30.896 119.69 30.728 119.226 30.52L119.682 28.888C120.146 29.112 120.642 29.288 121.17 29.416C121.698 29.544 122.218 29.608 122.73 29.608C123.034 29.608 123.322 29.584 123.594 29.536C123.882 29.472 124.13 29.376 124.338 29.248C124.546 29.104 124.714 28.936 124.842 28.744C124.97 28.536 125.034 28.288 125.034 28C125.034 27.552 124.858 27.168 124.506 26.848C124.154 26.512 123.698 26.184 123.138 25.864C122.802 25.656 122.466 25.44 122.13 25.216C121.81 24.976 121.522 24.72 121.266 24.448C121.01 24.16 120.802 23.848 120.642 23.512C120.482 23.176 120.402 22.816 120.402 22.432C120.402 21.392 120.762 20.6 121.482 20.056C122.218 19.512 123.194 19.24 124.41 19.24C125.018 19.24 125.586 19.312 126.114 19.456C126.658 19.6 127.162 19.792 127.626 20.032L127.194 21.616C126.25 21.12 125.314 20.872 124.386 20.872C123.826 20.872 123.37 20.968 123.018 21.16C122.682 21.352 122.514 21.704 122.514 22.216C122.514 22.616 122.666 22.96 122.97 23.248C123.274 23.52 123.682 23.816 124.194 24.136C124.498 24.328 124.818 24.544 125.154 24.784C125.506 25.008 125.826 25.264 126.114 25.552C126.402 25.84 126.642 26.168 126.834 26.536C127.026 26.888 127.122 27.288 127.122 27.736ZM135.416 19.24C136.36 19.24 137.128 19.496 137.72 20.008C138.312 20.504 138.608 21.152 138.608 21.952C138.608 22.752 138.368 23.408 137.888 23.92C137.424 24.432 136.832 24.84 136.112 25.144C135.392 25.448 134.6 25.672 133.736 25.816C132.872 25.96 132.04 26.056 131.24 26.104C131.192 26.392 131.168 26.688 131.168 26.992C131.168 27.744 131.344 28.368 131.696 28.864C132.048 29.36 132.672 29.608 133.568 29.608C134.128 29.608 134.688 29.528 135.248 29.368C135.808 29.192 136.328 28.968 136.808 28.696L137.216 30.184C136.656 30.504 136.048 30.76 135.392 30.952C134.752 31.144 134.072 31.24 133.352 31.24C132.648 31.24 132.032 31.128 131.504 30.904C130.976 30.68 130.536 30.368 130.184 29.968C129.848 29.568 129.592 29.104 129.416 28.576C129.24 28.032 129.152 27.448 129.152 26.824C129.152 25.864 129.296 24.928 129.584 24.016C129.872 23.104 130.288 22.296 130.832 21.592C131.376 20.872 132.032 20.304 132.8 19.888C133.584 19.456 134.456 19.24 135.416 19.24ZM135.152 20.824C134.672 20.824 134.232 20.936 133.832 21.16C133.432 21.368 133.072 21.648 132.752 22C132.448 22.336 132.192 22.728 131.984 23.176C131.776 23.608 131.624 24.04 131.528 24.472C132.088 24.456 132.664 24.408 133.256 24.328C133.864 24.232 134.416 24.096 134.912 23.92C135.408 23.728 135.816 23.488 136.136 23.2C136.456 22.896 136.616 22.52 136.616 22.072C136.616 21.704 136.48 21.408 136.208 21.184C135.952 20.944 135.6 20.824 135.152 20.824ZM147.423 21.328C147.359 21.312 147.287 21.304 147.207 21.304C147.127 21.304 147.055 21.304 146.991 21.304C146.143 21.304 145.383 21.584 144.711 22.144C144.055 22.704 143.487 23.48 143.007 24.472L141.855 31H139.743L141.783 19.48H143.847L143.319 22.48C143.687 21.472 144.167 20.712 144.759 20.2C145.351 19.672 146.063 19.408 146.895 19.408C147.023 19.408 147.159 19.416 147.303 19.432C147.447 19.432 147.559 19.448 147.639 19.48L147.423 21.328ZM162.35 14.728C163.246 14.728 164.134 14.824 165.014 15.016C165.91 15.192 166.718 15.464 167.438 15.832L166.958 17.536C166.19 17.2 165.438 16.944 164.702 16.768C163.966 16.576 163.19 16.48 162.374 16.48C161.254 16.48 160.262 16.68 159.398 17.08C158.534 17.464 157.806 18 157.214 18.688C156.622 19.36 156.174 20.16 155.87 21.088C155.566 22 155.414 22.992 155.414 24.064C155.414 25.84 155.918 27.208 156.926 28.168C157.95 29.112 159.342 29.584 161.102 29.584C161.582 29.584 162.062 29.552 162.542 29.488C163.022 29.408 163.462 29.304 163.862 29.176L164.726 24.16H166.718L165.614 30.448C164.99 30.72 164.262 30.928 163.43 31.072C162.598 31.216 161.758 31.288 160.91 31.288C159.678 31.288 158.59 31.104 157.646 30.736C156.702 30.352 155.902 29.84 155.246 29.2C154.59 28.544 154.094 27.776 153.758 26.896C153.422 26.016 153.254 25.072 153.254 24.064C153.254 22.8 153.446 21.6 153.83 20.464C154.23 19.328 154.814 18.336 155.582 17.488C156.35 16.64 157.302 15.968 158.438 15.472C159.574 14.976 160.878 14.728 162.35 14.728ZM179.85 19.48L177.81 31H175.77L176.394 27.376C176.17 27.808 175.914 28.256 175.626 28.72C175.354 29.168 175.034 29.584 174.666 29.968C174.314 30.336 173.922 30.64 173.49 30.88C173.058 31.12 172.586 31.24 172.074 31.24C171.034 31.24 170.298 30.88 169.866 30.16C169.45 29.424 169.242 28.44 169.242 27.208C169.242 26.696 169.29 26.16 169.386 25.6L170.466 19.48H172.578L171.522 25.432C171.474 25.704 171.434 25.976 171.402 26.248C171.37 26.52 171.354 26.792 171.354 27.064C171.354 27.384 171.362 27.696 171.378 28C171.41 28.288 171.466 28.552 171.546 28.792C171.642 29.016 171.778 29.2 171.954 29.344C172.146 29.472 172.41 29.536 172.746 29.536C173.146 29.536 173.538 29.376 173.922 29.056C174.322 28.736 174.698 28.336 175.05 27.856C175.402 27.36 175.73 26.824 176.034 26.248C176.338 25.672 176.602 25.12 176.826 24.592L177.738 19.48H179.85ZM181.415 31L183.455 19.48H185.567L183.527 31H181.415ZM183.719 16.264C183.719 15.848 183.847 15.496 184.103 15.208C184.375 14.92 184.751 14.776 185.231 14.776C185.599 14.776 185.887 14.888 186.095 15.112C186.319 15.336 186.431 15.608 186.431 15.928C186.431 16.344 186.287 16.696 185.999 16.984C185.727 17.272 185.359 17.416 184.895 17.416C184.527 17.416 184.239 17.304 184.031 17.08C183.823 16.856 183.719 16.584 183.719 16.264ZM196.254 31H194.238L194.79 27.808C194.55 28.208 194.27 28.616 193.95 29.032C193.646 29.432 193.302 29.8 192.918 30.136C192.55 30.456 192.142 30.72 191.694 30.928C191.262 31.136 190.806 31.24 190.326 31.24C189.782 31.24 189.31 31.128 188.91 30.904C188.526 30.68 188.206 30.384 187.95 30.016C187.71 29.632 187.526 29.192 187.398 28.696C187.286 28.184 187.23 27.64 187.23 27.064C187.23 26.152 187.366 25.232 187.638 24.304C187.926 23.36 188.342 22.52 188.886 21.784C189.446 21.032 190.134 20.424 190.95 19.96C191.782 19.48 192.75 19.24 193.854 19.24C194.782 19.24 195.55 19.376 196.158 19.648L197.142 14.056H199.254L196.254 31ZM190.878 29.584C191.294 29.584 191.702 29.448 192.102 29.176C192.518 28.888 192.91 28.528 193.278 28.096C193.662 27.664 194.014 27.176 194.334 26.632C194.67 26.088 194.966 25.552 195.222 25.024L195.894 21.208C195.654 21.112 195.35 21.04 194.982 20.992C194.63 20.928 194.294 20.896 193.974 20.896C193.206 20.896 192.534 21.08 191.958 21.448C191.382 21.8 190.894 22.272 190.494 22.864C190.11 23.44 189.822 24.096 189.63 24.832C189.438 25.552 189.342 26.272 189.342 26.992C189.342 27.312 189.366 27.632 189.414 27.952C189.462 28.256 189.542 28.528 189.654 28.768C189.766 29.008 189.918 29.208 190.11 29.368C190.318 29.512 190.574 29.584 190.878 29.584ZM206.221 19.24C207.165 19.24 207.933 19.496 208.525 20.008C209.117 20.504 209.413 21.152 209.413 21.952C209.413 22.752 209.173 23.408 208.693 23.92C208.229 24.432 207.637 24.84 206.917 25.144C206.197 25.448 205.405 25.672 204.541 25.816C203.677 25.96 202.845 26.056 202.045 26.104C201.997 26.392 201.973 26.688 201.973 26.992C201.973 27.744 202.149 28.368 202.501 28.864C202.853 29.36 203.477 29.608 204.373 29.608C204.933 29.608 205.493 29.528 206.053 29.368C206.613 29.192 207.133 28.968 207.613 28.696L208.021 30.184C207.461 30.504 206.853 30.76 206.197 30.952C205.557 31.144 204.877 31.24 204.157 31.24C203.453 31.24 202.837 31.128 202.309 30.904C201.781 30.68 201.341 30.368 200.989 29.968C200.653 29.568 200.397 29.104 200.221 28.576C200.045 28.032 199.957 27.448 199.957 26.824C199.957 25.864 200.101 24.928 200.389 24.016C200.677 23.104 201.093 22.296 201.637 21.592C202.181 20.872 202.837 20.304 203.605 19.888C204.389 19.456 205.261 19.24 206.221 19.24ZM205.957 20.824C205.477 20.824 205.037 20.936 204.637 21.16C204.237 21.368 203.877 21.648 203.557 22C203.253 22.336 202.997 22.728 202.789 23.176C202.581 23.608 202.429 24.04 202.333 24.472C202.893 24.456 203.469 24.408 204.061 24.328C204.669 24.232 205.221 24.096 205.717 23.92C206.213 23.728 206.621 23.488 206.941 23.2C207.261 22.896 207.421 22.52 207.421 22.072C207.421 21.704 207.285 21.408 207.013 21.184C206.757 20.944 206.405 20.824 205.957 20.824Z" fill="white"/>
</g>
<defs>
<clipPath id="clip0_7194_5612">
<rect width="211" height="40" fill="white"/>
</clipPath>
<clipPath id="clip1_7194_5612">
<rect width="95" height="24" fill="white" transform="translate(0 8)"/>
</clipPath>
</defs>
</svg>
